<?xml version="1.0" encoding="UTF-8"?>
<svg id="Calque_1" data-name="Calque 1" xmlns="http://www.w3.org/2000/svg" viewBox="0 0 4000 3000">
  <defs>
    <style>
      .cls-1 {
        fill: #010101;
      }

      .cls-2 {
        fill: #fff;
      }
    </style>
  </defs>
  <rect class="cls-1" width="4000" height="3000"/>
  <path class="cls-2" d="M1228.2,987.59c38.32,0,68.7,22.46,68.7,62.1,0,72.67-155.98,163.26-155.98,217.43,0,23.78,14.53,40.96,39.64,40.96,51.53,0,132.18-87.91,157.29-131.51l18.5,10.57c-52.85,85.88-128.49,217.26-243.44,217.26-43.6,0-87.88-30.39-87.88-75.31,0-100.41,164.22-132.73,164.22-208.04,0-21.14-10.57-34.35-33.03-34.35-54.17,0-152.65,154.62-171.14,199.54l-304.79,681.23h-98.41l434.27-940.2h68.02l-52.85,122.88c35.67-60.78,120.26-162.54,196.89-162.54Z"/>
  <path class="cls-2" d="M1533.32,1280.94c-29.06,58.14-85.34,122.59-158.01,122.59-54.17,0-80.6-46.24-80.6-96.45,0-128.16,124.98-290.38,262.39-290.38,30.39,0,56.82,15.85,59.46,47.56l18.5-37h73.16c-22.46,46.24-100.44,199.56-100.44,245.8,0,14.53,5.78,28.16,26.43,27.75,82.72-1.66,199.02-233.91,222.8-273.55l50.62-.09-98.16,159.96c-33.03,55.49-138.53,217.72-228.04,216.4-77.94-1.15-48.1-122.59-48.1-122.59ZM1550.47,1055.68c-66.07,0-153.3,147.36-153.3,204.17,0,18.5,6.6,44.92,29.06,44.92,66.06,0,154.63-151.32,154.63-208.14,0-18.5-9.25-40.96-30.39-40.96Z"/>
  <path class="cls-2" d="M2298.56,1027.17s-.02.06-.04.08c.02-.02.04-.04.06-.08h-.02ZM2152.37,1027.25l-11.33,24.89,12.41-24.89h-1.07Z"/>
  <path class="cls-2" d="M2426.44,772.25l-215.35,463.76c-13.58,25.96-23.78,43.75-30.9,58.77-46.7,55.46-104.78,110.06-150.87,110.06-42.3,0-55.5-38.31-55.5-74,0-31.7,10.02-61.81,10.02-61.81-33.03,59.47-98.55,135.8-180.46,135.8-50.22,0-66.75-46.25-66.75-84.56,0-29.08,5.42-36.7,17.31-63.14l103.07-229.91h75.8l-87.27,182.43c-7.92,18.5-17.19,40.95-17.19,62.09,0,17.19,7.94,29.08,26.44,29.08,68.7,0,188.46-212.28,224.19-273.59h73.4l-11.33,24.89-.02.04-75.88,153.43c-7.92,18.5-23.61,52.75-22.95,73.9,1.06,33.73,34.72,24.75,44.16,20.87,94.62-38.87,339.48-534.76,336.16-528.12"/>
  <path class="cls-2" d="M2422.49,772.25l-121.97,254.92-95.39,208.85c-13.58,25.96-23.78,43.75-30.9,58.77-8.83,18.56-12.98,32.91-13.04,53.31-.06,26.44,6.99,60.64,52.12,54.11,92.24-13.38,198.96-151.66,235.96-215.08l-18.5-10.56c-21.14,37-109.72,124.23-148.05,124.23-17.17,0-23.78-15.84-23.78-30.39,0-35.67,18.5-67.39,31.72-97.77l75.38-145.47,132.11-254.92"/>
  <path class="cls-2" d="M1142.06,1461c96.15,0,160.01,57.25,160.01,143.13,0,52.85-25.69,91.75-65.33,103.49,46.24,11.74,76.34,55.78,76.34,116.7,0,85.88-63.86,143.13-159.28,143.13h-381.31c-5.87,0-14.2,0-10.28-10.28l216.62-485.17c1.67-3.68,4.41-11.01,10.28-11.01h152.94ZM1108.3,1659.91c22.02,0,36.7-13.21,36.7-33.76s-14.68-33.76-36.7-33.76h-46.24v67.53h46.24ZM1121.52,1836.07c21.28,0,35.97-13.94,35.97-35.23s-14.68-35.23-35.97-35.23h-59.45v70.46h59.45Z"/>
  <path class="cls-2" d="M1774.05,1955.72c3.67,6.61-1.47,11.74-8.07,11.74h-157.07c-7.34,0-13.94-5.14-16.88-11.74l-76.34-160.01h-8.81v161.48c0,5.14-5.14,10.28-11.74,10.28h-129.19c-5.87,0-11.01-5.14-11.01-10.28v-485.17c0-5.87,5.14-11.01,11.01-11.01h193.78c113.03,0,187.9,66.06,187.9,165.88,0,57.99-35.23,116.71-90.28,140.19l116.7,188.64ZM1550.18,1670.92c24.96,0,41.84-15.41,41.84-38.9s-16.88-38.9-41.84-38.9h-43.31v77.8h43.31Z"/>
  <path class="cls-2" d="M1942.15,1461c6.6,0,11.01,5.14,11.01,11.01v485.17c0,5.14-4.41,10.28-11.01,10.28h-129.92c-5.14,0-10.28-5.14-10.28-10.28v-485.17c0-5.87,5.14-11.01,10.28-11.01h129.92Z"/>
  <path class="cls-2" d="M2484.58,1957.92c2.2,4.4-.74,9.54-6.61,9.54h-145.33c-6.61,0-12.48-3.67-15.42-9.54l-22.02-77.07h-137.99l-22.02,77.07c-2.94,5.87-8.81,9.54-15.42,9.54h-145.33c-5.87,0-8.81-5.14-6.6-9.54l165.88-487.37c2.2-4.4,10.27-9.54,17.61-9.54h149.73c7.34,0,15.42,5.14,17.61,9.54l165.89,487.37ZM2226.21,1636.43l-39.64,139.46h79.28l-39.64-139.46Z"/>
  <path class="cls-2" d="M2920.59,1461c6.61,0,11.01,5.14,11.01,11.01v485.17c0,5.14-4.4,10.28-11.01,10.28h-126.98c-5.14,0-11.74-3.67-15.41-9.54l-127.71-228.27v227.54c0,5.14-4.41,10.28-11.01,10.28h-129.92c-5.87,0-10.28-5.14-10.28-10.28v-485.17c0-5.87,4.41-11.01,10.28-11.01h126.98c6.61,0,13.95,3.67,16.88,9.54l126.98,228.27v-226.8c0-5.87,5.14-11.01,10.27-11.01h129.92Z"/>
  <path class="cls-2" d="M3154.07,1462.99c155.61,0,259.1,100.56,259.1,253.23s-103.49,253.23-259.1,253.23h-170.28c-5.14,0-10.28-5.14-10.28-11.01v-484.44c0-5.87,5.14-11.01,10.28-11.01h170.28ZM3162.89,1837.32c56.51,0,94.68-48.44,94.68-121.11s-38.17-121.11-94.68-121.11h-38.17v242.22h38.17Z"/>
  <polygon class="cls-2" points="2152.37 1027.25 2153.45 1027.25 2141.04 1052.14 2152.37 1027.25"/>
</svg>